<svg width="938" height="654" viewBox="0 0 938 654" fill="none" xmlns="http://www.w3.org/2000/svg">
<g id="undraw_biking_kc-4-f 1" clip-path="url(#clip0_1_2)">
<g id="Left-wheel">
<path id="Vector" d="M335.5 652.944C317.502 652.944 299.908 647.607 284.943 637.608C269.978 627.609 258.315 613.397 251.427 596.769C244.539 580.141 242.737 561.844 246.249 544.191C249.76 526.539 258.427 510.324 271.153 497.598C283.88 484.871 300.095 476.204 317.747 472.693C335.399 469.182 353.696 470.984 370.324 477.871C386.952 484.759 401.165 496.423 411.164 511.388C421.163 526.352 426.5 543.946 426.5 561.944C426.473 586.071 416.877 609.201 399.817 626.261C382.757 643.321 359.626 652.917 335.5 652.944ZM335.5 472.944C317.897 472.944 300.69 478.164 286.054 487.944C271.418 497.723 260.011 511.623 253.275 527.886C246.539 544.148 244.776 562.043 248.21 579.307C251.644 596.572 260.121 612.43 272.567 624.877C285.014 637.324 300.873 645.8 318.137 649.234C335.401 652.668 353.296 650.906 369.559 644.17C385.821 637.434 399.721 626.026 409.501 611.39C419.28 596.754 424.5 579.547 424.5 561.944C424.473 538.348 415.088 515.726 398.403 499.041C381.718 482.356 359.096 472.971 335.5 472.944V472.944Z" fill="#2F2E41"/>
<path id="Vector_2" d="M273.428 503L272 504.4L391.609 626.332L393.036 624.931L273.428 503Z" fill="#2F2E41"/>
</g>
<g id="Right-wheel">
<path id="Vector_3" d="M615.5 652.944C597.502 652.944 579.908 647.607 564.943 637.608C549.978 627.609 538.315 613.397 531.427 596.769C524.539 580.141 522.737 561.844 526.249 544.191C529.76 526.539 538.427 510.324 551.153 497.598C563.88 484.871 580.095 476.204 597.747 472.693C615.399 469.182 633.696 470.984 650.324 477.871C666.952 484.759 681.165 496.423 691.164 511.388C701.163 526.352 706.5 543.946 706.5 561.944C706.473 586.071 696.877 609.201 679.817 626.261C662.757 643.321 639.626 652.917 615.5 652.944ZM615.5 472.944C597.897 472.944 580.69 478.164 566.054 487.944C551.418 497.723 540.011 511.623 533.275 527.886C526.538 544.148 524.776 562.043 528.21 579.307C531.644 596.572 540.121 612.43 552.567 624.877C565.014 637.324 580.873 645.8 598.137 649.234C615.401 652.668 633.296 650.906 649.559 644.17C665.821 637.434 679.721 626.026 689.501 611.39C699.28 596.754 704.5 579.547 704.5 561.944C704.473 538.348 695.088 515.726 678.403 499.041C661.718 482.356 639.096 472.971 615.5 472.944V472.944Z" fill="#2F2E41"/>
<path id="Vector_4" d="M553.428 503L552 504.4L671.609 626.332L673.036 624.931L553.428 503Z" fill="#2F2E41"/>
</g>
<g id="Bike">
<path id="Vector_5" d="M335.5 567.945C338.814 567.945 341.5 565.258 341.5 561.945C341.5 558.631 338.814 555.945 335.5 555.945C332.186 555.945 329.5 558.631 329.5 561.945C329.5 565.258 332.186 567.945 335.5 567.945Z" fill="#2F2E41"/>
<path id="Vector_6" d="M617.5 567.945C620.814 567.945 623.5 565.258 623.5 561.945C623.5 558.631 620.814 555.945 617.5 555.945C614.186 555.945 611.5 558.631 611.5 561.945C611.5 565.258 614.186 567.945 617.5 567.945Z" fill="#2F2E41"/>
<path id="Vector_7" d="M344.42 553.337L342.58 552.552L394.845 429.931L543.055 432.955L543.342 433.405L616.342 547.405L614.658 548.484L541.945 434.934L396.155 431.958L344.42 553.337Z" fill="#2F2E41"/>
<path id="Vector_8" d="M500.125 576.128L538.538 440.672L540.462 441.217L502.875 573.761L603.374 560.952L603.626 562.937L500.125 576.128Z" fill="#2F2E41"/>
<path id="Vector_9" d="M391.214 460.244L389.786 461.645L492.786 566.645L494.214 565.244L391.214 460.244Z" fill="#2F2E41"/>
<path id="Vector_10" d="M548.53 408.68L542.54 430.683L544.47 431.208L550.46 409.206L548.53 408.68Z" fill="#2F2E41"/>
<path id="Vector_11" d="M398.476 424.166L396.524 423.723L401.247 402.945H384.5V389.945H386.5V400.945H403.753L398.476 424.166Z" fill="#2F2E41"/>
<path id="Vector_12" d="M512.5 392.944C512.5 392.944 512.5 386.945 525.5 389.945C538.5 392.945 578.5 400.944 581.5 399.944C584.5 398.944 583.5 405.944 570.5 408.944C557.5 411.944 542.5 404.944 539.5 402.944C536.5 400.944 512.5 392.944 512.5 392.944Z" fill="#2F2E41"/>
<path id="Vector_13" d="M476.5 567.945H450.5V577.945H476.5V567.945Z" fill="#6C63FF"/>
<path id="Vector_14" d="M501.5 594.944C497.544 594.944 493.678 593.771 490.389 591.574C487.1 589.376 484.536 586.253 483.022 582.598C481.509 578.944 481.113 574.922 481.884 571.043C482.656 567.163 484.561 563.599 487.358 560.802C490.155 558.005 493.719 556.1 497.598 555.329C501.478 554.557 505.499 554.953 509.154 556.467C512.808 557.981 515.932 560.544 518.129 563.833C520.327 567.122 521.5 570.989 521.5 574.944C521.494 580.247 519.385 585.331 515.636 589.08C511.886 592.83 506.802 594.939 501.5 594.944V594.944ZM501.5 556.944C497.94 556.944 494.46 558 491.5 559.978C488.54 561.956 486.233 564.767 484.87 568.056C483.508 571.345 483.151 574.964 483.846 578.456C484.54 581.948 486.255 585.155 488.772 587.672C491.289 590.19 494.497 591.904 497.988 592.599C501.48 593.293 505.099 592.937 508.388 591.574C511.677 590.212 514.489 587.905 516.466 584.945C518.444 581.985 519.5 578.505 519.5 574.944C519.494 570.172 517.596 565.597 514.222 562.223C510.847 558.848 506.272 556.95 501.5 556.944Z" fill="#2F2E41"/>
<path id="Vector_15" d="M903 651.445H0V653.445H903V651.445Z" fill="#2F2E41"/>
</g>
<g id="Person">
<path id="Vector_16" d="M450.5 382.945L445.5 494.944C445.5 494.944 458.5 600.944 455.5 603.944C452.5 606.944 444.5 612.944 450.5 619.944C456.5 626.944 478.5 631.944 479.5 627.944C480.5 623.944 482.5 509.944 482.5 509.944L489.5 374.945L450.5 382.945Z" fill="#2F2E41"/>
<path id="Vector_17" opacity="0.2" d="M450.5 382.945L445.5 494.944C445.5 494.944 458.5 600.944 455.5 603.944C452.5 606.944 444.5 612.944 450.5 619.944C456.5 626.944 478.5 631.944 479.5 627.944C480.5 623.944 482.5 509.944 482.5 509.944L489.5 374.945L450.5 382.945Z" fill="black"/>
<path id="Vector_18" d="M455.5 617.944C455.5 617.944 430.5 636.944 427.5 636.944C424.5 636.944 397.5 645.944 416.5 649.944C435.5 653.944 481.5 651.944 482.5 645.944C483.5 639.944 479.5 621.736 479.5 621.736L455.5 617.944Z" fill="#2F2E41"/>
<path id="Vector_19" opacity="0.2" d="M455.5 617.944C455.5 617.944 430.5 636.944 427.5 636.944C424.5 636.944 397.5 645.944 416.5 649.944C435.5 653.944 481.5 651.944 482.5 645.944C483.5 639.944 479.5 621.736 479.5 621.736L455.5 617.944Z" fill="black"/>
<path id="Vector_20" d="M393.5 298.945C393.5 298.945 382.5 302.945 382.5 305.945C382.5 308.945 372.5 346.945 370.5 348.945C368.5 350.945 367.5 359.945 367.5 359.945C367.5 359.945 357.5 382.945 359.5 382.945C361.5 382.945 378.5 378.945 379.5 382.945C380.5 386.945 388.5 357.945 388.5 357.945L405.5 323.945L393.5 298.945Z" fill="#6C63FF"/>
<path id="Vector_21" d="M359.5 386.945C359.5 386.945 362.5 408.944 370.5 410.944C378.5 412.944 370.5 382.945 370.5 382.945L359.5 386.945Z" fill="#FFB8B8"/>
<path id="Vector_22" d="M470.5 384.945C470.5 384.945 401.5 424.944 402.5 437.944C403.5 450.944 455.5 521.944 455.5 521.944C455.5 521.944 459.5 542.944 463.5 542.944C467.5 542.944 492.5 551.944 493.5 545.944C494.5 539.944 485.5 532.944 486.5 528.944C487.5 524.944 442.5 451.944 442.5 451.944C442.5 451.944 538.807 415.945 518.654 384.945C498.5 353.945 470.5 384.945 470.5 384.945Z" fill="#2F2E41"/>
<path id="Vector_23" d="M472.5 538.944C472.5 538.944 460.5 541.944 458.5 545.944C456.5 549.944 421.5 562.944 431.5 565.944C441.5 568.944 499.5 569.944 501.5 567.944C503.5 565.944 501.5 542.732 493.5 542.838C485.5 542.944 476.5 545.944 472.5 538.944Z" fill="#2F2E41"/>
<path id="Vector_24" d="M394.5 309.945L417 282.445C417 282.445 442.5 274.945 453.5 289.945C464.5 304.945 494.5 341.945 504.5 349.945C514.5 357.945 528.5 388.944 523.5 389.944C518.5 390.944 490.5 378.945 479.5 386.945C468.5 394.945 447.5 395.944 446.5 391.944C445.5 387.944 385.5 320.945 385.5 311.945C385.5 302.945 391.894 301.013 391.894 301.013L394.5 309.945Z" fill="#6C63FF"/>
<path id="Vector_25" d="M406.585 389.449L376.415 378.783C374.853 378.231 373.139 379.049 372.587 380.611C372.034 382.173 372.853 383.887 374.415 384.44L404.585 395.106C406.147 395.658 407.861 394.84 408.413 393.278C408.966 391.716 408.147 390.002 406.585 389.449Z" fill="#2F2E41"/>
<path id="Vector_26" d="M338.5 376.945C338.5 376.945 303.5 386.944 306.5 397.944C309.5 408.944 341.5 384.945 341.5 384.945L338.5 376.945Z" fill="#FFB8B8"/>
<path id="Vector_27" d="M429.5 289.945C429.5 289.945 415.5 301.945 412.5 315.945C409.5 329.945 394.5 354.945 394.5 354.945L333.5 374.945C333.5 374.945 329.5 393.944 335.5 393.944C341.5 393.944 408.5 379.945 410.5 376.945C412.5 373.945 455.5 316.945 455.5 316.945C455.5 316.945 459.5 285.945 429.5 289.945Z" fill="#6C63FF"/>
<path id="Vector_28" d="M394.5 296.945C407.755 296.945 418.5 286.199 418.5 272.945C418.5 259.69 407.755 248.945 394.5 248.945C381.245 248.945 370.5 259.69 370.5 272.945C370.5 286.199 381.245 296.945 394.5 296.945Z" fill="#FFB8B8"/>
</g>
<g id="Hair">
<path id="Vector_29" d="M379.594 245.166C379.002 245.675 378.294 246.031 377.532 246.2C377.15 246.269 376.756 246.183 376.437 245.961C376.117 245.74 375.898 245.402 375.828 245.02C375.387 246.243 374.568 247.294 373.489 248.019C372.344 248.616 370.573 248.116 370.408 246.835C370.241 247.807 369.811 248.716 369.164 249.461C368.827 249.817 368.363 250.027 367.873 250.043C367.382 250.059 366.905 249.882 366.545 249.548C367.047 252.289 366.737 255.107 366.895 257.889C367.052 260.67 367.794 263.619 369.895 265.448C372.96 268.116 377.569 267.458 381.6 266.952C382.21 266.824 382.843 266.859 383.435 267.052C384.944 267.696 384.876 269.797 384.896 271.438C385.019 274.317 386.159 277.058 388.112 279.177C390.065 281.295 392.706 282.653 395.566 283.008C397.166 283.255 398.799 282.857 400.105 281.9C401.25 280.93 401.834 279.349 403.146 278.62C405.28 277.434 407.867 279.164 409.427 281.041C410.987 282.918 412.525 285.228 414.941 285.571C418.137 286.026 420.571 282.769 421.766 279.769C423.413 275.566 424.203 271.075 424.087 266.562C423.972 262.048 422.954 257.603 421.093 253.49C414.42 238.943 391.624 236.642 379.594 245.166Z" fill="#2F2E41"/>
</g>
<g id="Box">
<path class="color"  id="Vector_30" d="M154.935 444.372L70.0648 395.372L21.0648 480.242L105.935 529.242L154.935 444.372Z" fill="#F2F2F2"/>
</g>
</g>
<defs>
<clipPath id="clip0_1_2">
<rect width="937.597" height="653.445" fill="white"/>
</clipPath>
</defs>
</svg>
